<svg width="1028" height="310" viewBox="0 0 1028 310" fill="none" xmlns="http://www.w3.org/2000/svg">
<path d="M915.865 91.6139C914.555 96.0139 913.475 99.3739 912.565 102.784C907.565 121.564 902.565 140.364 897.565 159.144C895.425 167.144 891.635 169.774 882.975 169.564C876.115 169.394 872.265 165.764 870.425 158.374C863.605 131.094 856.655 103.834 849.765 76.5739C849.376 75.1251 849.086 73.6518 848.895 72.1639C848.205 65.6939 850.675 61.4739 855.635 60.5139C862.855 59.1039 868.405 62.0639 870.145 68.4639C871.335 72.7939 872.305 77.1939 873.265 81.5839C876.675 97.3439 880.035 113.114 883.465 128.874C883.695 129.874 884.405 130.874 885.645 133.324C887.425 126.744 888.815 121.594 890.215 116.464C894.595 100.464 898.685 84.3039 903.515 68.4139C905.575 61.6339 910.055 59.8039 918.235 60.2739C924.085 60.6039 928.385 63.9539 930.015 69.9739C935.355 89.7039 940.555 109.464 945.855 129.194C946.351 130.385 946.964 131.524 947.685 132.594C948.565 131.244 949.345 130.544 949.515 129.724C952.395 115.374 955.055 100.974 958.105 86.6639C959.601 79.6787 961.47 72.7788 963.705 65.9939C965.415 60.7939 970.415 58.9939 977.005 60.4339C981.385 61.3839 984.225 64.9739 983.465 70.1739C982.325 78.0539 980.645 85.8839 978.825 93.6539C975.105 109.514 971.185 125.344 967.235 141.154C965.625 147.594 963.875 154.014 961.865 160.344C959.615 167.454 956.375 169.484 948.355 169.494C941.185 169.494 937.515 167.134 935.485 160.114C932.095 148.454 929.085 136.694 925.965 124.954C923.305 114.954 920.715 104.954 918.035 95.0339C917.795 94.1639 917.055 93.4539 915.865 91.6139Z" fill="white"/>
<path d="M787.284 170.864C762.854 170.304 747.054 161.374 738.654 138.864C730.654 117.454 731.364 95.4439 746.234 76.7539C759.504 60.0739 778.474 57.1139 798.414 60.5339C815.614 63.4839 828.344 72.8739 834.724 89.6639C839.918 103.287 840.784 118.181 837.204 132.314C833.554 147.504 825.404 159.254 810.814 165.174C803.414 168.184 795.154 169.034 787.284 170.864ZM749.284 102.464L748.464 104.374C749.954 105.714 751.364 107.164 752.964 108.374C757.964 112.164 763.224 115.704 768.084 119.694C768.702 120.348 769.164 121.132 769.438 121.989C769.711 122.846 769.789 123.753 769.664 124.644C768.834 128.324 767.154 131.814 766.014 135.434C764.534 140.104 763.244 144.834 761.874 149.534L763.414 150.204C770.414 145.464 777.414 140.814 784.224 135.914C786.484 134.304 788.124 134.054 790.384 135.914C794.264 139.024 798.384 141.914 802.384 144.754C805.204 146.754 808.094 148.684 810.954 150.644L812.034 149.644C809.644 141.584 807.034 133.564 805.034 125.404C804.859 124.371 804.918 123.311 805.207 122.304C805.496 121.297 806.008 120.367 806.704 119.584C811.414 115.414 816.624 111.814 821.554 107.884C822.977 106.597 824.313 105.217 825.554 103.754L824.754 102.424C816.974 102.424 809.184 102.354 801.404 102.424C798.554 102.424 796.814 101.714 795.904 98.6939C793.954 92.1739 791.654 85.7639 789.404 79.3439C788.807 77.9974 788.105 76.7001 787.304 75.4639L785.954 75.6239C783.554 82.7839 780.774 89.8439 778.884 97.1439C777.684 101.764 775.274 102.684 771.034 102.524C763.794 102.254 756.524 102.464 749.264 102.464H749.284Z" fill="white"/>
<path d="M695.735 131.474V126.134C695.735 107.984 695.545 89.8239 695.675 71.6639C695.735 63.5239 698.675 60.5939 705.775 60.3839C712.615 60.1739 715.905 63.2039 715.975 70.2139C716.095 82.3839 716.055 94.5439 716.055 106.704C716.055 123.197 716.022 139.691 715.955 156.184C715.955 161.584 714.955 166.714 709.115 168.824C702.295 171.284 695.495 169.254 691.485 163.294C678.415 143.844 665.485 124.294 652.575 104.724C651.415 102.964 650.195 101.244 648.105 98.2039C647.777 100.037 647.546 101.886 647.415 103.744C647.465 120.744 647.605 137.744 647.615 154.744C647.63 157.389 647.355 160.028 646.795 162.614C645.795 167.324 642.555 169.414 637.795 169.614C633.035 169.814 629.205 168.444 627.645 163.504C626.952 161.466 626.564 159.336 626.495 157.184C626.362 129.537 626.298 101.871 626.305 74.1839C626.305 66.9639 629.395 62.0439 634.305 60.6639C641.485 58.6639 647.445 60.9239 651.565 67.2539C664.345 86.9005 677.128 106.544 689.915 126.184C691.245 128.184 692.915 130.064 694.375 132.004L695.735 131.474Z" fill="white"/>
<path d="M243.345 76.4738C241.085 76.7938 238.825 77.2038 236.555 77.4038C227.455 78.2238 227.245 78.3538 227.215 87.6838C227.155 114.837 227.125 141.991 227.125 169.144V181.144C228.735 180.924 229.565 181.064 229.945 180.714C236.235 174.854 243.245 169.544 248.495 162.864C254.135 155.684 252.245 149.934 244.665 144.864C243.787 144.345 243.089 143.57 242.665 142.644C250.595 142.064 258.045 143.134 263.795 149.284C267.215 152.934 267.145 159.654 262.325 164.794C255.555 172.024 248.325 179.084 240.255 184.794C221.415 198.114 200.625 207.924 178.885 215.574C165.115 220.414 151.315 225.374 137.185 228.864C124.185 232.074 110.685 233.394 97.3946 235.474C96.5018 235.427 95.6247 235.22 94.8047 234.864L94.7947 233.614C98.2547 233.014 101.705 232.274 105.185 231.854C108.105 231.504 109.745 230.424 109.745 227.194C109.745 195.041 109.798 162.887 109.905 130.734C109.74 129.586 109.475 128.455 109.115 127.354C99.3847 134.534 89.8146 140.784 86.4746 152.654C85.2946 156.814 86.8746 160.654 90.4746 163.174C91.9046 164.174 93.6846 164.694 94.4746 166.314C87.1746 167.704 81.2847 166.464 75.9947 162.934C73.796 161.373 72.2527 159.053 71.6618 156.422C71.071 153.792 71.4746 151.035 72.7947 148.684C75.2025 144.341 78.2348 140.376 81.7947 136.914C96.0447 123.004 113.415 113.834 131.155 105.294C161.156 90.8851 193.083 80.8884 225.945 75.6138C231.575 74.7038 237.385 74.8738 243.105 74.5438L243.345 76.4738ZM121.895 172.734H121.655C121.655 188.874 121.655 205.02 121.655 221.174C121.655 227.684 122.165 228.174 128.655 226.174C138.655 223.174 148.925 220.654 158.525 216.614C176.245 209.164 193.525 200.764 211.055 192.734C214.405 191.204 215.805 188.784 215.795 184.854C215.685 152.734 215.795 120.604 215.795 88.4738C215.795 82.1238 215.365 81.7238 209.235 83.3438C180.753 90.7137 153.314 101.643 127.565 115.874C123.285 118.254 121.775 121.044 121.835 125.754C122.035 141.434 121.895 157.084 121.895 172.734Z" fill="white"/>
<path d="M465.375 60.2639C473.445 60.4339 476.735 62.7039 479.715 70.1539C488.855 92.9539 498.055 115.724 507.095 138.564C509.545 144.548 511.639 150.672 513.365 156.904C514.905 162.734 512.185 167.794 507.645 169.184C500.775 171.294 495.645 169.064 493.045 162.734C491.115 157.964 489.205 153.184 487.555 148.314C486.325 144.704 484.055 143.604 480.375 143.694C469.375 143.974 458.375 144.034 447.375 143.994C443.865 143.994 441.945 145.124 440.895 148.684C439.495 153.454 437.475 158.034 435.605 162.684C434.411 165.439 432.228 167.646 429.486 168.87C426.744 170.093 423.643 170.245 420.795 169.294C416.445 167.934 413.795 162.594 415.635 156.714C418.265 148.324 421.535 140.134 424.785 131.954C433.005 111.287 441.308 90.6473 449.695 70.0339C452.525 63.0839 457.795 59.7439 465.375 60.2639ZM464.875 86.1939C463.615 87.7739 462.775 88.4339 462.465 89.2839C458.385 100.164 454.358 111.067 450.385 121.994C449.265 125.064 450.635 126.324 453.735 126.294C460.565 126.214 467.395 126.154 474.225 126.294C478.435 126.354 478.995 124.454 477.755 120.924C474.155 110.744 470.705 100.514 467.135 90.3239C466.486 88.893 465.73 87.5125 464.875 86.1939Z" fill="white"/>
<path d="M528.794 115.554C528.794 102.404 528.734 89.2538 528.794 76.1038C528.864 64.5038 532.564 60.7839 544.044 60.7539C554.364 60.7539 564.694 60.5839 574.994 61.0039C583.714 61.3439 592.324 63.1139 599.264 68.7839C610.604 78.0439 611.644 90.5838 608.914 103.784C605.684 119.344 592.914 126.554 575.754 127.784C569.624 128.204 563.454 128.164 557.294 128.304C551.294 128.434 550.694 129.054 550.634 134.904C550.564 143.384 550.634 151.904 550.334 160.344C550.204 164.344 548.604 168.204 544.404 169.244C539.884 170.364 534.704 170.794 531.644 166.244C529.892 163.478 528.924 160.287 528.844 157.014C528.554 143.204 528.714 129.384 528.714 115.574L528.794 115.554ZM550.514 94.1939C550.514 98.0239 550.634 101.864 550.514 105.684C550.394 108.804 551.614 110.504 554.774 110.434C561.434 110.294 568.124 110.434 574.774 109.784C582.564 109.034 587.774 102.244 587.614 93.9738C587.474 85.9738 582.614 80.2539 574.674 79.5239C568.384 78.9439 562.044 78.9539 555.724 78.6839C551.824 78.5139 550.354 80.4539 550.544 84.2039C550.614 87.5239 550.484 90.8639 550.484 94.1939H550.514Z" fill="white"/>
<path d="M266.355 138.284C267.815 137.434 268.405 136.784 268.885 136.854C276.885 138.154 285.405 138.174 292.655 141.244C302.415 145.364 303.305 153.994 296.535 163.134C288.535 173.894 278.095 181.854 266.815 188.674C255.035 195.794 242.955 202.454 230.815 208.974C227.755 210.624 226.975 212.514 227.035 215.654C227.195 224.314 227.195 232.984 227.125 241.654C227.035 252.054 218.665 260.894 208.225 260.974C182.065 261.16 155.909 261.16 129.755 260.974C121.345 260.914 115.205 256.514 111.755 248.974C110.205 245.544 108.045 245.174 104.755 245.074C93.4752 244.704 82.2051 244.074 70.9651 243.174C68.9651 243.014 66.9652 241.484 65.0352 240.584L65.3452 239.204C66.7152 239.124 68.0752 239.024 69.4452 238.964C83.0452 238.364 96.7551 238.694 110.215 236.964C154.475 231.334 195.555 215.834 234.495 194.514C249.985 186.024 264.555 176.054 275.725 161.944C276.035 161.554 276.435 161.224 276.725 160.824C283.095 152.014 281.245 144.974 271.345 140.454C269.965 139.764 268.525 139.204 266.355 138.284ZM168.355 249.494V249.244C181.165 249.244 193.965 249.344 206.765 249.244C213.055 249.184 215.525 246.564 215.635 240.364C215.745 233.884 215.635 227.364 215.815 220.914C215.905 216.714 214.545 216.254 210.715 217.804C183.715 228.704 156.115 237.584 127.305 242.334C125.735 242.594 124.305 243.924 122.865 244.754C124.245 246.234 125.435 247.984 127.055 249.114C127.995 249.774 129.625 249.514 130.945 249.514C143.439 249.52 155.919 249.514 168.385 249.494H168.355Z" fill="#FFC108"/>
<path d="M71.4645 172.544C63.9745 174.704 57.6645 172.254 51.3445 170.844C48.9435 170.219 46.6534 169.227 44.5545 167.904C36.7045 163.294 34.8045 156.244 39.6445 148.484C46.8545 136.924 57.4344 128.714 68.7644 121.714C80.3144 114.574 92.4245 108.304 104.434 101.914C108.374 99.8139 110.434 97.5039 110.124 92.6639C109.674 84.5239 109.924 76.3439 110.124 68.1839C110.404 57.6139 118.124 49.4339 128.794 49.3039C155.114 48.9773 181.448 48.9139 207.794 49.1139C216.474 49.1839 223.094 53.5539 225.884 62.1839C226.884 65.2839 228.824 65.2539 231.264 65.1839C238.924 65.0239 246.614 64.4739 254.264 65.0039C260.024 65.4139 265.684 67.2439 271.394 68.4339C271.334 69.0839 271.284 69.7339 271.224 70.4339C269.91 70.7337 268.571 70.9144 267.224 70.9739C233.224 69.6339 200.414 75.9039 168.224 86.6239C139.534 96.1639 112.064 108.074 86.8145 124.774C76.6645 131.494 67.2445 139.184 60.2345 149.354C54.7345 157.354 56.2345 164.754 64.5145 168.304C66.7045 169.234 68.6645 170.804 71.4645 172.544ZM214.734 66.6139C213.304 61.6139 209.844 61.0439 205.994 61.0339C180.694 60.9839 155.394 60.8739 130.094 60.8639C124.824 60.8639 122.254 62.9839 121.964 68.2039C121.564 75.2039 121.714 82.2039 121.684 89.2039C121.684 92.7439 123.334 93.4139 126.534 92.2039C134.284 89.2539 142.154 86.6339 149.894 83.6839C169.524 76.1839 189.894 71.5039 210.514 67.8439C211.894 67.5039 213.224 66.9939 214.734 66.6139Z" fill="#FFC108"/>
<path d="M386.085 122.064C386.085 133.894 386.175 145.724 386.085 157.554C385.995 166.374 381.915 170.074 373.295 169.494C367.995 169.134 364.875 165.984 364.085 159.574C363.736 155.918 363.612 152.245 363.715 148.574C363.715 127.907 363.762 107.241 363.855 86.5739C363.855 79.9739 363.545 79.6639 356.705 79.6639C351.045 79.6639 345.375 79.8439 339.705 79.5939C332.965 79.2939 330.105 76.4439 330.055 70.5939C330.005 64.7439 333.355 61.0139 339.755 60.9839C362.905 60.8539 386.075 60.7939 409.225 61.0939C417.775 61.2139 422.485 68.7539 418.225 75.3939C416.785 77.6639 412.985 79.2739 410.085 79.6139C404.28 80.2106 398.433 80.2776 392.615 79.8139C387.375 79.4639 385.985 81.7239 386.065 86.5039C386.265 98.3339 386.135 110.164 386.135 121.994L386.085 122.064Z" fill="white"/>
<path d="M749.265 102.464C756.525 102.464 763.785 102.254 771.035 102.544C775.275 102.704 777.685 101.784 778.885 97.1639C780.775 89.8639 783.555 82.8039 785.955 75.6439L787.305 75.4839C788.106 76.7201 788.808 78.0174 789.405 79.3639C791.655 85.7839 793.955 92.1939 795.905 98.7139C796.815 101.714 798.555 102.484 801.405 102.444C809.185 102.344 816.975 102.444 824.755 102.444L825.555 103.774C824.314 105.237 822.977 106.617 821.555 107.904C816.625 111.834 811.415 115.434 806.705 119.604C806.009 120.387 805.497 121.317 805.208 122.324C804.919 123.331 804.86 124.391 805.035 125.424C807.095 133.584 809.675 141.604 812.035 149.664L810.955 150.664C808.095 148.664 805.205 146.794 802.385 144.774C798.385 141.884 794.245 139.044 790.385 135.934C788.125 134.124 786.485 134.374 784.225 135.934C777.385 140.834 770.365 145.484 763.415 150.224L761.875 149.554C763.245 144.854 764.535 140.124 766.015 135.454C767.155 131.834 768.835 128.344 769.665 124.664C769.789 123.773 769.712 122.866 769.438 122.009C769.165 121.152 768.702 120.368 768.085 119.714C763.225 115.714 757.995 112.184 752.965 108.394C751.365 107.194 749.965 105.744 748.465 104.394L749.265 102.464Z" fill="#FFC108"/>
<path d="M654.427 205.753C649.517 205.753 645.607 207.295 642.696 210.38C639.785 213.421 638.33 217.57 638.33 222.827C638.33 228.041 639.829 232.19 642.827 235.274C645.824 238.359 649.691 239.901 654.427 239.901C658.38 239.901 662.247 238.707 666.027 236.317L668.764 243.029C664.376 245.853 659.314 247.265 653.579 247.265C646.15 247.265 640.198 245.071 635.723 240.683C631.248 236.252 629.011 230.3 629.011 222.827C629.011 215.311 631.205 209.359 635.593 204.971C639.981 200.583 645.976 198.389 653.579 198.389C659.314 198.389 664.376 199.801 668.764 202.625L666.027 209.337C662.247 206.947 658.38 205.753 654.427 205.753ZM673.552 246.614L690.04 199.04H699.816L716.369 246.614H706.593L703.204 235.144H686.456L683.002 246.614H673.552ZM688.476 228.171H701.119L694.863 207.056H694.732L688.476 228.171ZM732.39 228.041V246.614H723.397V199.366C727.828 198.714 732.607 198.389 737.734 198.389C744.12 198.389 748.899 199.583 752.071 201.973C755.243 204.319 756.828 207.643 756.828 211.944C756.828 215.072 755.981 217.809 754.287 220.155C752.636 222.501 750.377 224.13 747.509 225.043V225.173C749.595 226.39 751.398 228.975 752.918 232.928L758.132 246.614H748.747L743.795 233.124C743.013 231.038 742.122 229.67 741.123 229.018C740.123 228.366 738.407 228.041 735.974 228.041H732.39ZM732.39 221.133H736.235C743.968 221.133 747.835 218.374 747.835 212.856C747.835 207.947 744.251 205.492 737.082 205.492C735.301 205.492 733.737 205.622 732.39 205.883V221.133ZM803.839 222.175C803.839 230.3 801.667 236.513 797.322 240.814C793.021 245.115 786.874 247.265 778.88 247.265C774.231 247.265 769.886 246.94 765.846 246.288V199.366C769.886 198.714 774.231 198.389 778.88 198.389C786.83 198.389 792.978 200.474 797.322 204.645C801.667 208.772 803.839 214.616 803.839 222.175ZM795.172 222.175C795.172 211.183 789.893 205.687 779.336 205.687C777.685 205.687 776.186 205.818 774.839 206.079V239.575C776.186 239.836 777.685 239.967 779.336 239.967C784.636 239.967 788.59 238.511 791.197 235.6C793.847 232.689 795.172 228.214 795.172 222.175ZM810.601 246.614V235.535H821.028V246.614H810.601ZM853.18 205.753C848.271 205.753 844.361 207.295 841.45 210.38C838.539 213.421 837.083 217.57 837.083 222.827C837.083 228.041 838.582 232.19 841.58 235.274C844.578 238.359 848.444 239.901 853.18 239.901C857.134 239.901 861 238.707 864.78 236.317L867.517 243.029C863.129 245.853 858.068 247.265 852.333 247.265C844.904 247.265 838.951 245.071 834.477 240.683C830.002 236.252 827.764 230.3 827.764 222.827C827.764 215.311 829.958 209.359 834.346 204.971C838.734 200.583 844.73 198.389 852.333 198.389C858.068 198.389 863.129 199.801 867.517 202.625L864.78 209.337C861 206.947 857.134 205.753 853.18 205.753ZM878.765 205.036C883.11 200.604 888.888 198.389 896.1 198.389C903.312 198.389 909.069 200.604 913.37 205.036C917.715 209.424 919.887 215.354 919.887 222.827C919.887 230.3 917.715 236.252 913.37 240.683C909.069 245.071 903.312 247.265 896.1 247.265C888.888 247.265 883.11 245.071 878.765 240.683C874.464 236.252 872.313 230.3 872.313 222.827C872.313 215.354 874.464 209.424 878.765 205.036ZM885.543 235.339C888.149 238.294 891.669 239.771 896.1 239.771C900.532 239.771 904.051 238.294 906.658 235.339C909.264 232.342 910.568 228.171 910.568 222.827C910.568 217.483 909.264 213.334 906.658 210.38C904.051 207.382 900.532 205.883 896.1 205.883C891.669 205.883 888.149 207.382 885.543 210.38C882.936 213.334 881.633 217.483 881.633 222.827C881.633 228.171 882.936 232.342 885.543 235.339ZM965.235 214.485H965.105L954.678 234.688H946.466L936.039 214.485H935.909V246.614H927.241V199.04H936.365L950.507 227.063H950.637L964.779 199.04H974.163V246.614H965.235V214.485Z" fill="white"/>
<rect x="153.795" y="64.6139" width="19" height="6" rx="3" fill="#FFC108"/>
</svg>
